<?xml version="1.0" encoding="utf-8"?>
<!-- Generator: Adobe Illustrator 27.5.0, SVG Export Plug-In . SVG Version: 6.00 Build 0)  -->
<svg version="1.1" xmlns="http://www.w3.org/2000/svg" xmlns:xlink="http://www.w3.org/1999/xlink" x="0px" y="0px"
	 viewBox="0 0 3710 3710" style="enable-background:new 0 0 3710 3710;" xml:space="preserve">
<g id="Background">
	<g>
		<g>
			<rect style="fill:#FFFFFF;" width="3710" height="3710"/>
		</g>
	</g>
</g>
<g id="Illustration">
	<g>
		<linearGradient id="SVGID_1_" gradientUnits="userSpaceOnUse" x1="3512.9761" y1="3709.3186" x2="1536.2257" y2="1605.0367">
			<stop  offset="0" style="stop-color:#DAE3FE"/>
			<stop  offset="1" style="stop-color:#E9EFFD"/>
		</linearGradient>
		<path style="fill:url(#SVGID_1_);" d="M2919.458,2865.09c-72.974,75.219-138.268,119.435-188.259,152.815
			c-487.557,325.546-1044.888,231.716-1217.201,199.645c-278.006-51.743-512.681-88.245-714.309-270.408
			c-458.16-413.929-435.876-1277.416-85.786-1812.309c41.51-63.423,391.07-581.579,949.608-654.592
			c13.661-1.786,23.854-2.803,32.782-3.748c86.404-9.148,621.836-57.431,1058.427,308.345
			c62.496,52.359,163.07,146.801,256.334,290.841C3352.071,1602.353,3353.152,2418.056,2919.458,2865.09z"/>
		<path style="fill:#91B3FA;" d="M3228.325,3091.055c-0.025-0.123-0.053-0.245-0.08-0.367
			c-9.927-45.921-38.03-156.579-82.377-179.233c-1.344-0.687-2.357-1.868-2.725-3.331l-11.853-47.142
			c-0.553-2.201,0.422-4.474,2.371-5.637c0.898-0.538,1.796-1.082,2.691-1.64c1.995-1.239,2.853-3.701,2.091-5.927
			c-22.163-64.673-323.598-942.067-408.559-1070.082c-0.711-1.072-0.985-2.3-0.765-3.569
			c14.646-84.102,79.002-369.736,118.635-461.265c6.597-15.234,11.132-31.244,13.467-47.676c1.354-9.536,2.745-18.973,3.621-23.964
			c0.294-1.677,1.392-3.055,2.953-3.732c193.024-83.663,512.223-287.24,242.982-670.789c0.107-0.393,0.18-0.674,0.18-0.674
			s8.393-100.702-41.959-109.093c-50.35-8.393-67.134,41.956-75.527,67.134c-7.765,23.29,63.463,68.115,87.456,74.69
			c1.709,0.468,3.019,1.778,3.501,3.484c10.043,35.534,85.837,338.699-237.681,381c-0.424,0.058-0.842,0.061-1.266,0.01
			c-33.903-4.062-89.244-9.621-156.043-12.308c-2.455-0.099-4.516-1.926-4.877-4.355l-23.665-160.045
			c-0.468-3.157,2.029-6.001,5.219-5.855c11.483,0.527,31.061-1.327,55.593-14.438c29.892-15.979,18.356-27.968,10.618-33.003
			c-2.198-1.432-2.213-4.596-0.185-6.26c42.689-34.937,50.656-77.41,31.185-93.786c-8.285-6.966-15.027-7.959-20.092-6.712
			c-5.234,1.288-10.587-1.912-11.147-7.27c-4.741-45.337-50.622-72.206-118.568-84.746c-49.894-9.208-68.551-27.141-75.462-38.205
			c-1.786-2.856-6.093-2.23-7.032,1.009c-0.976,3.373-5.562,3.844-7.206,0.74c-2.405-4.555-8.177-6.26-12.574-3.579
			c-25.9,15.785-41.644,58.37-21.315,91.804c5.928,9.747,17.552,18.398,31.921,26.056c2.303,1.228,3.368,3.95,2.41,6.377
			c-12.375,31.382-32.297,86.502-34.194,120.536c-2.769,49.711-13.481,81.965,43.997,91.974c0.418,0.075,0.835,0.143,1.252,0.211
			c2.647,0.435,4.511,2.817,4.276,5.491l-9.708,110.001c-0.223,2.535-2.262,4.508-4.804,4.637
			c-70.871,3.637-144.964,12.309-214.843,29.234c-0.771,0.184-1.582,0.19-2.354,0.014
			c-273.421-62.679-203.967-339.71-194.44-373.395c0.48-1.694,1.773-2.975,3.47-3.44c23.974-6.556,95.243-51.394,87.478-74.695
			c-8.393-25.175-25.177-75.529-75.527-67.134c-50.352,8.391-41.959,109.093-41.959,109.093s0.071,0.279,0.178,0.674
			c-251.056,357.645-3.633,551.462,190.891,645.559c1.693,0.82,2.78,2.49,2.854,4.368l0.762,19.011
			c0.505,12.639,2.376,25.161,5.596,37.395c20.121,76.474,98.244,371.461,143.334,514.244c0,0,0.39,0.068,1.094,0.187
			c20.038,125.344,165.157,1033.905,171.192,1092.392c0.196,1.902,1.432,3.494,3.217,4.178c1.992,0.762,4.906,1.806,8.599,2.919
			c1.83,0.554,3.199,2.102,3.538,3.987l6.688,37.29c0.458,2.548-1.039,5.031-3.518,5.787
			c-43.481,13.196-142.826,47.271-179.956,92.824c-2.495,3.062-4.79,6.157-6.687,9.318c-1.949,3.249-1.699,6.943-0.012,9.842
			l-257.551,65.407l117.925,11.604l318.037-68.918c28.694-0.507,59.794-1.548,92.666-3.382c7.119-0.398,12.846-6.035,13.163-13.084
			c0.059-1.32,0.102-2.745,0.122-4.249c0.308-20.752-3.606-58.464-29.32-98.792c-0.565-0.885-0.852-1.932-0.8-2.98l1.924-38.089
			c0.112-2.228,1.664-4.093,3.819-4.675c2.215-0.599,4.443-1.265,6.68-2.004c2.116-0.698,3.506-2.725,3.443-4.953
			c-1.369-48.299-16.332-553.905-49.093-785.073c-0.791-5.583,6.722-8.144,9.493-3.235
			c59.558,105.575,297.177,531.911,381.914,762.062c0.845,2.296,3.154,3.643,5.571,3.252c0.778-0.126,1.655-0.276,2.626-0.446
			c2.463-0.436,4.897,0.98,5.726,3.341l12.952,36.916c0.479,1.364,0.33,2.844-0.34,4.127c-4.89,9.352-7.966,22.205-4.865,39.246
			c5.654,31.067,16.263,80.087,35.658,121.436l-4.54-2.082l-500.787,67.83l73.657,22.467l477.106-40.988
			c2.744,0.568,5.535,1.003,8.393,1.14c14.85,0.714,33.979-0.759,51.474-9.383
			C3224.207,3120.541,3231.448,3105.534,3228.325,3091.055z"/>
		<g>
			<path style="fill:#BDD0FB;" d="M648.182,527.732c-5.326-13.246,9.703-25.471,21.708-17.745
				c121.91,78.453,425.466,324.717,457.327,846.939c39.974,655.205,216.54,864.444,408.977,976.465
				c0,0-240.55-25.036-427.83-235.857C648.549,1579.916,742.883,763.246,648.182,527.732z"/>
			<path style="fill:#FFFFFF;" d="M764.148,713.315c26.144,68.944,50.915,138.367,73.112,208.597
				c22.562,70.1,42.989,140.853,61.18,212.141c17.917,71.351,34.492,143.027,47.999,215.301
				c13.83,72.21,24.544,144.932,35.045,217.985c10.903,72.952,21.472,146.505,39.603,219.201
				c18.027,72.559,45.005,144.133,84.261,208.656c9.803,16.077,19.938,32.038,30.912,47.242
				c10.697,15.415,22.079,30.36,33.724,45.094c23.443,29.361,48.874,57.216,76.256,83.057
				c54.904,51.551,117.617,94.7,184.215,128.728c7.01,3.582,15.595,0.802,19.177-6.208c3.517-6.882,0.9-15.286-5.833-18.978
				l-0.048-0.026c-15.964-8.735-31.808-17.642-47.201-27.224c-7.775-4.669-15.325-9.673-22.968-14.533
				c-7.448-5.143-15.099-9.999-22.381-15.367c-29.481-20.974-57.454-43.993-83.586-68.966
				c-52.453-49.635-97.759-107.366-135.369-168.938c-18.463-31.009-34.609-63.323-48.213-96.769
				c-13.579-33.459-24.609-68.013-33.675-103.223c-18.146-70.459-29.208-143.174-40.635-216.043
				c-11.524-72.87-23.605-146.018-38.677-218.555c-7.437-36.284-15.526-72.43-24.257-108.414
				c-4.262-18.016-8.872-35.946-13.449-53.882c-4.749-17.892-9.597-35.755-14.589-53.575
				c-20.101-71.246-42.366-141.844-66.83-211.641c-24.798-69.678-51.438-138.676-80.69-206.53c-0.837-1.94-3.086-2.834-5.025-1.998
				C764.326,709.26,763.431,711.416,764.148,713.315z"/>
		</g>
		<g>
			<g>
				<path style="fill:#91B3FA;" d="M1021.17,2501.4c-7.059,25.341-37.704,35.237-58.463,19.08
					c-114.545-89.145-415.609-370.476-426.172-871.429c-8.919-423.032-53.956-651.57-81.591-753.901
					c-5.843-21.639,19.334-38.16,36.886-24.221C685.484,1024.717,1276.952,1583.174,1021.17,2501.4z"/>
				<path style="fill:#FFFFFF;" d="M985.671,2504.306c-0.515,0.401-1.073,0.756-1.678,1.061c-5.059,2.563-11.239,0.539-13.802-4.521
					c-2.905-5.737-290.949-580.353-329.922-1167.99c-0.373-5.655,3.909-10.548,9.569-10.929c5.661-0.374,10.551,3.909,10.929,9.57
					c38.688,583.36,324.862,1154.37,327.747,1160.069C990.773,2496.022,989.472,2501.347,985.671,2504.306z"/>
			</g>
		</g>
		<g>
			
				<linearGradient id="SVGID_00000144308880483303732760000003450132587334693788_" gradientUnits="userSpaceOnUse" x1="4065.8098" y1="-973.1094" x2="1149.1924" y2="2581.5205">
				<stop  offset="0" style="stop-color:#4F52FF"/>
				<stop  offset="1" style="stop-color:#4042E2"/>
			</linearGradient>
			<path style="fill:url(#SVGID_00000144308880483303732760000003450132587334693788_);" d="M813.782,1074.86
				c0-82.987,67.275-150.262,150.262-150.262h1277.837c70.498,0,128.628,55.246,132.212,125.653l94.323,1852.625
				c2.805,55.095-40.566,101.568-95.723,102.571l-1464.563,26.618c-51.828,0.942-94.349-40.813-94.349-92.649V1074.86z"/>
			<g>
				<path style="fill:#91B3FA;" d="M918.469,953.114c-0.156-26.551,23.194-47.101,49.505-43.533
					c174.5,23.664,774.561,96.852,1270.684,58.768c22.625-1.737,42.26,15.406,43.464,38.065l98.902,1860.883
					c1.356,25.516-18.128,47.335-43.635,48.845c-208.66,12.348-1067.987,60.083-1374.496,27.979
					c-18.655-1.954-32.815-17.66-32.926-36.417L918.469,953.114z"/>
				<path style="opacity:0.6;fill:#FFFFFF;" d="M939.024,999.746c-0.151-25.551,22.32-45.327,47.641-41.893
					c167.929,22.773,745.394,93.205,1222.836,56.554c21.773-1.671,40.668,14.826,41.827,36.632l95.178,1790.811
					c1.305,24.555-17.446,45.553-41.992,47.005c-200.803,11.883-1027.772,57.821-1322.739,26.926
					c-17.952-1.88-31.58-16.995-31.685-35.045L939.024,999.746z"/>
				<path style="opacity:0.49;fill:#FFFFFF;" d="M1588.7,1345.863l22.302,278.558c0.742,9.265,13.641,16.631,29.619,16.893
					c88.912,1.455,365.966,5.376,522.402,0.644c17.696-0.535,31.695-8.841,32.281-19.117c2.983-52.24,9.511-204.288-11.006-267.849
					c-3.314-10.267-18.524-17.791-36.516-18.156l-525.532-10.664C1603.3,1325.787,1587.82,1334.872,1588.7,1345.863z"/>
				<g style="opacity:0.6;">
					<path style="fill:#FFFFFF;" d="M1065.902,1310.716c-7.328-0.251-11.818,5.35-9.979,12.448l4.966,19.164
						c1.839,7.098,9.342,12.972,16.674,13.053l452.716,5.042c7.331,0.082,13.262-5.85,13.179-13.182l-0.077-6.821
						c-0.083-7.332-6.146-13.536-13.474-13.787L1065.902,1310.716z"/>
				</g>
				<g style="opacity:0.6;">
					<path style="fill:#FFFFFF;" d="M1061.526,1408.571c-7.328-0.251-11.818,5.35-9.979,12.448l4.965,19.164
						c1.839,7.098,9.342,12.971,16.674,13.053l452.716,5.042c7.332,0.082,13.262-5.85,13.179-13.182l-0.077-6.821
						c-0.083-7.331-6.146-13.536-13.474-13.787L1061.526,1408.571z"/>
				</g>
				<g style="opacity:0.6;">
					<path style="fill:#FFFFFF;" d="M1065.72,1929.236c-7.331-0.135-11.391,5.432-9.022,12.371l5.204,15.245
						c2.368,6.939,10.305,12.616,17.637,12.616h518.352c7.332,0,13.161-5.996,12.954-13.325l-0.101-3.566
						c-0.208-7.329-6.375-13.436-13.706-13.571L1065.72,1929.236z"/>
				</g>
				<g style="opacity:0.6;">
					<path style="fill:#FFFFFF;" d="M1075.259,2036.396c-7.33-0.169-11.754,5.481-9.832,12.557l5.162,18.999
						c1.922,7.076,9.494,12.865,16.826,12.865h452.744c7.332,0,13.196-5.997,13.031-13.327l-0.152-6.735
						c-0.165-7.33-6.298-13.466-13.628-13.635L1075.259,2036.396z"/>
				</g>
				<g style="opacity:0.6;">
					<path style="fill:#FFFFFF;" d="M2166.285,1742.157c7.332,0,13.057-5.993,12.722-13.317l-0.511-11.164
						c-0.335-7.324-6.608-13.385-13.939-13.469l-1101.408-12.53c-7.331-0.083-10.432,5.101-6.891,11.521l15.053,27.286
						c3.542,6.42,12.438,11.672,19.77,11.672H2166.285z"/>
				</g>
				<g style="opacity:0.6;">
					<path style="fill:#FFFFFF;" d="M1063.149,1796.7c-7.331-0.083-10.432,5.101-6.891,11.521l15.053,27.286
						c3.542,6.42,12.438,11.672,19.77,11.672h1075.204c7.332,0,13.057-5.993,12.722-13.317l-0.511-11.163
						c-0.335-7.324-6.608-13.385-13.939-13.469L1063.149,1796.7z"/>
				</g>
				<g>
					<g style="opacity:0.6;">
						<path style="fill:#FFFFFF;" d="M1062.632,2200.541c3.438,10.003,15.282,16.943,28.765,16.855l1098.834-7.188
							c12.431-0.081,22.375-7.947,22.103-17.483c-0.264-9.271-10.106-16.693-22.191-16.735l-1098.863-3.845
							C1071.883,2172.076,1057.685,2186.15,1062.632,2200.541z"/>
					</g>
					<g style="opacity:0.6;">
						<path style="fill:#FFFFFF;" d="M1062.632,2395.843c3.438,10.003,15.282,16.943,28.765,16.855l1098.834-7.189
							c12.431-0.081,22.375-7.947,22.103-17.482c-0.264-9.271-10.106-16.692-22.191-16.735l-1098.863-3.846
							C1071.883,2367.378,1057.685,2381.452,1062.632,2395.843z"/>
					</g>
					<g style="opacity:0.6;">
						<path style="fill:#FFFFFF;" d="M1062.632,2591.145c3.438,10.004,15.282,16.944,28.765,16.855l1098.834-7.189
							c12.431-0.081,22.375-7.946,22.103-17.483c-0.264-9.271-10.106-16.692-22.191-16.735l-1098.863-3.846
							C1071.883,2562.681,1057.685,2576.754,1062.632,2591.145z"/>
					</g>
					<g style="opacity:0.6;">
						<path style="fill:#FFFFFF;" d="M1062.632,2786.447L1062.632,2786.447c3.438,10.004,15.282,16.944,28.765,16.855
							l1098.834-7.188c12.431-0.082,22.375-7.947,22.103-17.483c-0.264-9.271-10.106-16.692-22.191-16.735l-1098.863-3.846
							C1071.883,2757.983,1057.685,2772.056,1062.632,2786.447z"/>
					</g>
				</g>
				<path style="opacity:0.49;fill:#FFFFFF;" d="M2202.067,2117.728h-530.826c-5.673,0-10.273-4.599-10.273-10.272v-184.263
					c0-5.673,4.599-10.273,10.273-10.273h530.826c5.674,0,10.273,4.599,10.273,10.273v184.263
					C2212.339,2113.129,2207.74,2117.728,2202.067,2117.728z"/>
				<path style="opacity:0.49;fill:#FFFFFF;" d="M1043.813,1102.462v117.948c0,12.652,10.107,22.988,22.756,23.272l1088.779,24.398
					c13.057,0.293,23.799-10.212,23.799-23.272v-79.442c0-12.334-9.621-22.527-21.935-23.239l-1088.779-62.905
					C1055.071,1078.451,1043.813,1089.078,1043.813,1102.462z"/>
			</g>
			
				<linearGradient id="SVGID_00000173846547728629187570000010836779467382860190_" gradientUnits="userSpaceOnUse" x1="1824.7826" y1="481.2624" x2="1237.0226" y2="1254.447">
				<stop  offset="0" style="stop-color:#09005D"/>
				<stop  offset="1" style="stop-color:#1A0F91"/>
			</linearGradient>
			<path style="fill:url(#SVGID_00000173846547728629187570000010836779467382860190_);" d="M1682.216,672.002
				c-46.157-32.111-86.292-31.475-114.544-23.138c-25.773,7.604-42.477,32.487-40.026,59.247l12.184,132.99l144.986,12.867
				C1684.816,853.967,1772.737,734.976,1682.216,672.002z M1618.456,779.292c-19.966,0-36.152-16.185-36.152-36.152
				s16.186-36.153,36.152-36.153c19.966,0,36.152,16.186,36.152,36.153S1638.422,779.292,1618.456,779.292z"/>
			<g>
				<path style="fill:#BDD0FB;" d="M1554.313,785.157c-1.789,0-3.314-1.363-3.48-3.181l-1.941-21.179
					c-0.177-1.924,1.24-3.625,3.164-3.803c1.963-0.184,3.628,1.24,3.803,3.167l1.94,21.179c0.178,1.924-1.24,3.625-3.164,3.803
					C1554.526,785.154,1554.419,785.157,1554.313,785.157z M1550.51,743.652c-1.789,0-3.314-1.363-3.48-3.181l-1.474-16.078
					c-2.337-25.491,13.704-49.227,38.138-56.439c17.305-5.108,35.134-5.839,52.99-2.176c1.892,0.386,3.112,2.238,2.725,4.13
					c-0.388,1.89-2.222,3.099-4.129,2.723c-16.726-3.423-33.412-2.744-49.605,2.033c-21.239,6.269-35.182,26.916-33.151,49.093
					l1.474,16.078c0.178,1.924-1.24,3.625-3.164,3.803C1550.724,743.649,1550.616,743.652,1550.51,743.652z"/>
			</g>
			
				<linearGradient id="SVGID_00000132778362397286248090000015655757714151162013_" gradientUnits="userSpaceOnUse" x1="1889.2552" y1="530.2718" x2="1301.4948" y2="1303.4569">
				<stop  offset="0" style="stop-color:#09005D"/>
				<stop  offset="1" style="stop-color:#1A0F91"/>
			</linearGradient>
			<path style="fill:url(#SVGID_00000132778362397286248090000015655757714151162013_);" d="M1341.95,927.045v-66.863
				c0-23.081,19.13-41.567,42.198-40.777l460.991,15.794c20.458,0.701,37.026,16.849,38.252,37.283l3.852,64.246L1341.95,927.045z"
				/>
			<path style="fill:#BDD0FB;" d="M1513.842,844.599h-19.825c-1.932,0-3.499-1.565-3.499-3.498c0-1.934,1.567-3.499,3.499-3.499
				h19.825c1.932,0,3.499,1.565,3.499,3.499C1517.34,843.034,1515.774,844.599,1513.842,844.599z"/>
			<path style="fill:#BDD0FB;" d="M1366.901,906.049c-1.932,0-3.498-1.565-3.498-3.499v-27.049c0-20.899,17.002-37.9,37.902-37.9
				h72.886c1.932,0,3.499,1.565,3.499,3.499c0,1.934-1.567,3.498-3.499,3.498h-72.886c-17.04,0-30.905,13.865-30.905,30.903v27.049
				C1370.4,904.484,1368.834,906.049,1366.901,906.049z"/>
			
				<linearGradient id="SVGID_00000023977433044009919390000016970168487907708313_" gradientUnits="userSpaceOnUse" x1="1608.0441" y1="261.7849" x2="1608.0441" y2="1942.1648">
				<stop  offset="0" style="stop-color:#4F52FF"/>
				<stop  offset="1" style="stop-color:#4042E2"/>
			</linearGradient>
			<path style="fill:url(#SVGID_00000023977433044009919390000016970168487907708313_);" d="M1154.115,943.929
				c1.112-23.153,20.209-41.354,43.389-41.355l806.13-0.022c28.986-0.001,53.767,20.859,58.712,49.42l0.682,3.942
				c5.416,31.284-18.67,59.898-50.42,59.898h-827.042c-19.001,0-34.142-15.887-33.23-34.866L1154.115,943.929z"/>
		</g>
		<g>
			<g>
				
					<linearGradient id="SVGID_00000031920095710781629820000010873728845101831813_" gradientUnits="userSpaceOnUse" x1="1184.7474" y1="2949.2935" x2="737.0089" y2="3564.9333">
					<stop  offset="0" style="stop-color:#E1473D"/>
					<stop  offset="1" style="stop-color:#E9605A"/>
				</linearGradient>
				
					<rect x="758.555" y="2972.59" style="fill:url(#SVGID_00000031920095710781629820000010873728845101831813_);" width="699.872" height="163.11"/>
				
					<linearGradient id="SVGID_00000078037593718941174480000017739584035731979409_" gradientUnits="userSpaceOnUse" x1="1510.6173" y1="2540.0229" x2="888.962" y2="3391.2793">
					<stop  offset="0" style="stop-color:#FF928E"/>
					<stop  offset="1" style="stop-color:#FE7062"/>
				</linearGradient>
				<path style="fill:url(#SVGID_00000078037593718941174480000017739584035731979409_);" d="M1465.589,3125.261H751.719
					c-4.271,0-7.733-3.462-7.733-7.733v-54.901h726.77v57.468C1470.756,3122.948,1468.443,3125.261,1465.589,3125.261z"/>
				
					<linearGradient id="SVGID_00000066479853936649510600000018113037111325284015_" gradientUnits="userSpaceOnUse" x1="1466.5406" y1="2528.4207" x2="844.8044" y2="3379.7878">
					<stop  offset="0" style="stop-color:#FF928E"/>
					<stop  offset="1" style="stop-color:#FE7062"/>
				</linearGradient>
				<path style="fill:url(#SVGID_00000066479853936649510600000018113037111325284015_);" d="M1463.089,3054.145H753.552
					c-5.284,0-9.567-4.283-9.567-9.567v-53.068h726.77v54.968C1470.756,3050.713,1467.323,3054.145,1463.089,3054.145z"/>
				
					<linearGradient id="SVGID_00000174570709034328996960000006418385557083263655_" gradientUnits="userSpaceOnUse" x1="1168.1089" y1="2204.897" x2="1102.7188" y2="3042.7109">
					<stop  offset="0" style="stop-color:#E1473D"/>
					<stop  offset="1" style="stop-color:#E9605A"/>
				</linearGradient>
				<path style="fill:url(#SVGID_00000174570709034328996960000006418385557083263655_);" d="M1470.756,2991.511h-726.77v-16.53
					c0-3.843,3.115-6.958,6.958-6.958h712.855c3.843,0,6.958,3.115,6.958,6.958V2991.511z"/>
			</g>
			<g>
				
					<linearGradient id="SVGID_00000033362755411255687590000011770917985650758559_" gradientUnits="userSpaceOnUse" x1="1442.28" y1="-851.711" x2="2071.897" y2="-106.1717" gradientTransform="matrix(0.4373 -0.8993 0.8993 0.4373 1589.6586 4924.9434)">
					<stop  offset="0" style="stop-color:#E1473D"/>
					<stop  offset="1" style="stop-color:#E9605A"/>
				</linearGradient>
				<path style="fill:url(#SVGID_00000033362755411255687590000011770917985650758559_);" d="M2109.528,3045.66
					c23.549,11.451,31.854,42.913,18.55,70.271c-13.304,27.358-43.179,40.254-66.728,28.802
					c-23.549-11.451-31.854-42.913-18.55-70.271C2056.104,3047.104,2085.979,3034.209,2109.528,3045.66z"/>
				
					<linearGradient id="SVGID_00000052087902258361898050000014831399719228789176_" gradientUnits="userSpaceOnUse" x1="2044.1019" y1="3007.3962" x2="2058.3174" y2="2699.8235">
					<stop  offset="0" style="stop-color:#E1473D"/>
					<stop  offset="1" style="stop-color:#E9605A"/>
				</linearGradient>
				<path style="fill:url(#SVGID_00000052087902258361898050000014831399719228789176_);" d="M2070.346,3059.918l-21.977,45.193
					c-1.457,2.997-5.067,4.244-8.064,2.787l-25.781-12.537c-2.997-1.457-4.245-5.067-2.787-8.064l21.976-45.193
					c1.457-2.997,5.068-4.244,8.064-2.787l25.781,12.537C2070.555,3053.311,2071.803,3056.921,2070.346,3059.918z"/>
				
					<linearGradient id="SVGID_00000071520784496488818050000012959840144336165767_" gradientUnits="userSpaceOnUse" x1="2244.7229" y1="2996.5542" x2="1212.0709" y2="2493.6252" gradientTransform="matrix(0.9989 -0.0469 0.0469 0.9989 -40.006 301.738)">
					<stop  offset="0" style="stop-color:#FF928E"/>
					<stop  offset="1" style="stop-color:#FE7062"/>
				</linearGradient>
				<path style="fill:url(#SVGID_00000071520784496488818050000012959840144336165767_);" d="M2040.499,3033.791
					c-4.327,22.205-14.184,42.039-29.173,59.673c-8.099,9.529-21.092,13.795-34.015,11.201
					c-123.544-24.807-382.469-184.838-633.923-324.639c-16.664-9.265-28.182-19.776-20.329-35.925l17.341-35.661
					c7.804-16.049,26.481-7.014,44.007,0.187c265.983,109.278,548.093,204.533,644.941,292.668
					C2038.644,3009.753,2042.783,3022.073,2040.499,3033.791z"/>
				
					<linearGradient id="SVGID_00000117660074173082401090000007319638229224413353_" gradientUnits="userSpaceOnUse" x1="1256.1395" y1="2489.0286" x2="1151.3309" y2="2893.4517" gradientTransform="matrix(0.9989 -0.0469 0.0469 0.9989 -40.006 301.738)">
					<stop  offset="0" style="stop-color:#E1473D"/>
					<stop  offset="1" style="stop-color:#E9605A"/>
				</linearGradient>
				<path style="fill:url(#SVGID_00000117660074173082401090000007319638229224413353_);" d="M1379.613,2674.292l-56.637,116.469
					c-1.449,2.98-5.04,4.221-8.02,2.772l-26.455-12.865c-2.98-1.449-4.221-5.04-2.772-8.02l56.637-116.469
					c1.449-2.98,5.04-4.221,8.02-2.772l26.455,12.865C1379.821,2667.721,1381.062,2671.311,1379.613,2674.292z"/>
				
					<linearGradient id="SVGID_00000034064528181075898100000011010337440662418834_" gradientUnits="userSpaceOnUse" x1="1071.1693" y1="2562.7915" x2="1070.2433" y2="2755.3877">
					<stop  offset="0" style="stop-color:#E1473D"/>
					<stop  offset="1" style="stop-color:#E9605A"/>
				</linearGradient>
				<path style="fill:url(#SVGID_00000034064528181075898100000011010337440662418834_);" d="M1117.92,2553.432l-56.637,116.469
					c-1.449,2.98-5.04,4.221-8.02,2.772l-26.455-12.865c-2.98-1.449-4.221-5.04-2.772-8.02l56.637-116.469
					c1.449-2.98,5.04-4.221,8.02-2.772l26.455,12.865C1118.128,2546.861,1119.369,2550.452,1117.92,2553.432z"/>
				
					<linearGradient id="SVGID_00000134932934385223448760000003332741899439311274_" gradientUnits="userSpaceOnUse" x1="1387.3783" y1="1750.5751" x2="1291.1707" y2="2191.1064">
					<stop  offset="0" style="stop-color:#E1473D"/>
					<stop  offset="1" style="stop-color:#E9605A"/>
				</linearGradient>
				<polygon style="fill:url(#SVGID_00000134932934385223448760000003332741899439311274_);" points="1406.564,2553.756 
					1220.534,2936.313 961.357,2810.28 1147.387,2427.723 				"/>
				
					<linearGradient id="SVGID_00000099632762610391556690000014032582089574690691_" gradientUnits="userSpaceOnUse" x1="1639.3345" y1="-1451.9962" x2="1515.4575" y2="-660.9979" gradientTransform="matrix(0.4373 -0.8993 0.8993 0.4373 1589.6586 4924.9434)">
					<stop  offset="0" style="stop-color:#FF928E"/>
					<stop  offset="1" style="stop-color:#FE7062"/>
				</linearGradient>
				<polygon style="fill:url(#SVGID_00000099632762610391556690000014032582089574690691_);" points="1230.345,2916.137 
					1206.949,2964.248 947.772,2838.215 971.167,2790.104 				"/>
				
					<linearGradient id="SVGID_00000095329938426318165140000013452515607226254215_" gradientUnits="userSpaceOnUse" x1="1032.2583" y1="2310.0969" x2="997.5278" y2="2651.6157" gradientTransform="matrix(0.9989 -0.0469 0.0469 0.9989 -40.006 301.738)">
					<stop  offset="0" style="stop-color:#E1473D"/>
					<stop  offset="1" style="stop-color:#E9605A"/>
				</linearGradient>
				<path style="fill:url(#SVGID_00000095329938426318165140000013452515607226254215_);" d="M1217.515,2942.521l-11.627,23.911
					c-3.555,7.311-11.882,10.978-19.675,8.664c-80.792-23.994-158.986-61.383-234.219-114.031
					c-6.588-4.61-8.849-13.335-5.333-20.566l11.676-24.011L1217.515,2942.521z"/>
				
					<linearGradient id="SVGID_00000141431815410833327950000004300752255355481995_" gradientUnits="userSpaceOnUse" x1="1347.1497" y1="2510.74" x2="825.7256" y2="2649.1831" gradientTransform="matrix(0.9989 -0.0469 0.0469 0.9989 -40.006 301.738)">
					<stop  offset="0" style="stop-color:#FF928E"/>
					<stop  offset="1" style="stop-color:#FE7062"/>
				</linearGradient>
				<path style="fill:url(#SVGID_00000141431815410833327950000004300752255355481995_);" d="M1243.353,2907.146l-9.029,18.568
					c-1.049,2.158-3.65,3.057-5.808,2.008L958.53,2796.432c-2.158-1.049-3.057-3.65-2.008-5.808l9.029-18.568
					c1.049-2.158,3.65-3.057,5.808-2.008l269.986,131.289C1243.504,2902.387,1244.402,2904.988,1243.353,2907.146z"/>
				
					<linearGradient id="SVGID_00000103946419258855575650000009096831649316264628_" gradientUnits="userSpaceOnUse" x1="1048.6952" y1="2308.041" x2="1013.5165" y2="2653.9658" gradientTransform="matrix(0.9989 -0.0469 0.0469 0.9989 -40.006 301.738)">
					<stop  offset="0" style="stop-color:#E1473D"/>
					<stop  offset="1" style="stop-color:#E9605A"/>
				</linearGradient>
				<path style="fill:url(#SVGID_00000103946419258855575650000009096831649316264628_);" d="M1242.158,2909.603l-6.639,13.653
					c-0.772,1.587-2.684,2.248-4.271,1.476l-272.054-132.295c-1.587-0.771-2.248-2.684-1.476-4.27l6.639-13.653
					c0.772-1.587,2.684-2.248,4.271-1.476l272.054,132.295C1242.269,2906.104,1242.929,2908.016,1242.158,2909.603z"/>
				
					<linearGradient id="SVGID_00000123428651282595184340000010612022222270671239_" gradientUnits="userSpaceOnUse" x1="6929.2114" y1="-1448.1748" x2="6805.3345" y2="-657.176" gradientTransform="matrix(-0.4373 0.8993 0.8993 0.4373 5523.7446 -3164.8772)">
					<stop  offset="0" style="stop-color:#FF928E"/>
					<stop  offset="1" style="stop-color:#FE7062"/>
				</linearGradient>
				<polygon style="fill:url(#SVGID_00000123428651282595184340000010612022222270671239_);" points="1408.074,2550.652 
					1431.469,2502.541 1172.292,2376.508 1148.896,2424.619 				"/>
				
					<linearGradient id="SVGID_00000116205821305864564430000004236307619595075250_" gradientUnits="userSpaceOnUse" x1="1086.658" y1="1990.5033" x2="1283.4628" y2="2268.3455" gradientTransform="matrix(0.9989 -0.0469 0.0469 0.9989 -40.006 301.738)">
					<stop  offset="0" style="stop-color:#E1473D"/>
					<stop  offset="1" style="stop-color:#E9605A"/>
				</linearGradient>
				<path style="fill:url(#SVGID_00000116205821305864564430000004236307619595075250_);" d="M1420.903,2524.268l11.627-23.911
					c3.555-7.311,1.298-16.125-5.335-20.825c-68.762-48.732-146.456-87.148-234.325-113.813c-7.694-2.335-15.953,1.274-19.469,8.505
					l-11.676,24.011L1420.903,2524.268z"/>
				
					<linearGradient id="SVGID_00000005972593773858915240000015150543507332214435_" gradientUnits="userSpaceOnUse" x1="1271.7582" y1="2065.2285" x2="1172.6968" y2="2359.8232" gradientTransform="matrix(0.9989 -0.0469 0.0469 0.9989 -40.006 301.738)">
					<stop  offset="0" style="stop-color:#FF928E"/>
					<stop  offset="1" style="stop-color:#FE7062"/>
				</linearGradient>
				<path style="fill:url(#SVGID_00000005972593773858915240000015150543507332214435_);" d="M1409.033,2566.436l9.029-18.568
					c1.05-2.158,0.151-4.758-2.007-5.808l-269.986-131.289c-2.158-1.05-4.758-0.151-5.808,2.007l-9.029,18.568
					c-1.049,2.158-0.151,4.758,2.007,5.808l269.986,131.289C1405.384,2569.493,1407.984,2568.594,1409.033,2566.436z"/>
				
					<linearGradient id="SVGID_00000103265077289691847410000002351177865994058679_" gradientUnits="userSpaceOnUse" x1="1047.0496" y1="2016.2292" x2="1245.1868" y2="2295.9524" gradientTransform="matrix(0.9989 -0.0469 0.0469 0.9989 -40.006 301.738)">
					<stop  offset="0" style="stop-color:#E1473D"/>
					<stop  offset="1" style="stop-color:#E9605A"/>
				</linearGradient>
				<path style="fill:url(#SVGID_00000103265077289691847410000002351177865994058679_);" d="M1410.229,2563.978l6.639-13.653
					c0.772-1.587,0.111-3.499-1.476-4.271l-272.054-132.295c-1.587-0.771-3.499-0.111-4.27,1.476l-6.639,13.653
					c-0.772,1.587-0.111,3.499,1.476,4.271l272.054,132.295C1407.545,2566.226,1409.457,2565.565,1410.229,2563.978z"/>
			</g>
		</g>
		<g>
			
				<linearGradient id="SVGID_00000087397978485324165500000014931656616969357717_" gradientUnits="userSpaceOnUse" x1="-214.7693" y1="1968.5986" x2="-327.4697" y2="2137.6492" gradientTransform="matrix(-1 0 0 1 1945.3531 0)">
				<stop  offset="0" style="stop-color:#FEBBBA"/>
				<stop  offset="1" style="stop-color:#FF928E"/>
			</linearGradient>
			<path style="fill:url(#SVGID_00000087397978485324165500000014931656616969357717_);" d="M2317.455,2240.428l-124.5,1.541
				l43.573-41.016c10.83-10.194,27.361-11.846,39.863-3.737c7.32,4.748,15.258,11.193,22.135,19.726
				c0,0,77.664-28.382,115.312-91.884c11.725,17.418,25.437,41.127,37.317,70.621
				C2417.406,2215.493,2373.656,2231.073,2317.455,2240.428z"/>
			
				<linearGradient id="SVGID_00000088823844012655211620000014943679693908747149_" gradientUnits="userSpaceOnUse" x1="-398.2117" y1="3137.6536" x2="-204.7335" y2="3137.6536" gradientTransform="matrix(-1 0 0 1 1945.3531 0)">
				<stop  offset="0" style="stop-color:#4F52FF"/>
				<stop  offset="1" style="stop-color:#4042E2"/>
			</linearGradient>
			<path style="fill:url(#SVGID_00000088823844012655211620000014943679693908747149_);" d="M2155.55,3128.295
				c33.145,2.865,90.67,7.519,136.021,9.515c27.261,1.2,42.955-1.469,51.994-5.088c-0.015,1.019-0.044,1.982-0.083,2.876
				c-0.215,4.771-4.092,8.59-8.913,8.859c-85.691,4.783-153.842,1.655-178.103,0.178c-5.017-0.306-8.006-5.757-5.441-10.034
				C2152.308,3132.463,2153.862,3130.367,2155.55,3128.295z"/>
			
				<linearGradient id="SVGID_00000109711878740267672740000013092042396408117908_" gradientUnits="userSpaceOnUse" x1="-205.3769" y1="2813.9666" x2="-249.4255" y2="2950.749" gradientTransform="matrix(-1 0 0 1 1945.3531 0)">
				<stop  offset="0" style="stop-color:#09005D"/>
				<stop  offset="1" style="stop-color:#1A0F91"/>
			</linearGradient>
			<path style="fill:url(#SVGID_00000109711878740267672740000013092042396408117908_);" d="M2291.571,3137.81
				c-45.35-1.996-102.875-6.65-136.021-9.515c32.587-39.981,136.021-66.928,136.021-66.928h29.213
				c20.092,28.963,23.002,56.537,22.781,71.355C2334.526,3136.341,2318.832,3139.01,2291.571,3137.81z"/>
			
				<linearGradient id="SVGID_00000088116951320781225070000010316518031860928681_" gradientUnits="userSpaceOnUse" x1="-380.349" y1="3046.7937" x2="-325.8502" y2="3046.7937" gradientTransform="matrix(-1 0 0 1 1945.3531 0)">
				<stop  offset="0" style="stop-color:#FEBBBA"/>
				<stop  offset="1" style="stop-color:#FF928E"/>
			</linearGradient>
			<path style="fill:url(#SVGID_00000088116951320781225070000010316518031860928681_);" d="M2325.702,3013.676l-2.733,54.097
				c-0.296,5.858-4.681,10.781-10.548,11.62c-5.838,0.834-13.655,0.941-21.945-1.819c-5.1-1.698-8.886-5.994-9.826-11.236
				l-9.447-52.662H2325.702z"/>
			<g>
				
					<linearGradient id="SVGID_00000154413698198371161040000002648129058956983478_" gradientUnits="userSpaceOnUse" x1="-743.5448" y1="3170.2295" x2="-669.4004" y2="3170.2295" gradientTransform="matrix(-1 0 0 1 1945.3531 0)">
					<stop  offset="0" style="stop-color:#4F52FF"/>
					<stop  offset="1" style="stop-color:#4042E2"/>
				</linearGradient>
				<path style="fill:url(#SVGID_00000154413698198371161040000002648129058956983478_);" d="M2664.755,3174.797
					c14.374-2.334,20.877-11.027,23.604-20.321c0.018,0.083,0.036,0.167,0.054,0.25c2.114,9.803-2.788,19.964-12.589,24.796
					c-11.846,5.84-24.799,6.836-34.854,6.354c-10.788-0.518-20.691-5.716-26.134-14.034l-0.082-0.125
					C2625.583,3177.955,2640.783,3178.689,2664.755,3174.797z"/>
				
					<linearGradient id="SVGID_00000108291512429555725150000002224656133110763921_" gradientUnits="userSpaceOnUse" x1="-555.7608" y1="2701.1318" x2="-599.8091" y2="2837.9136" gradientTransform="matrix(-1 0 0 1 1945.3531 0)">
					<stop  offset="0" style="stop-color:#09005D"/>
					<stop  offset="1" style="stop-color:#1A0F91"/>
				</linearGradient>
				<path style="fill:url(#SVGID_00000108291512429555725150000002224656133110763921_);" d="M2596.985,3030.343h24.091
					c36.696-0.873,59.74,89.238,67.282,124.133c-2.727,9.293-9.23,17.986-23.604,20.321c-23.971,3.892-39.172,3.158-50.001-3.08
					c-19.825-30.373-29.653-74.857-34.378-100.819C2575.002,3041.372,2596.985,3030.343,2596.985,3030.343z"/>
			</g>
			
				<linearGradient id="SVGID_00000120553247619007015260000000550542405183787161_" gradientUnits="userSpaceOnUse" x1="-686.4379" y1="3018.375" x2="-621.306" y2="3018.375" gradientTransform="matrix(-1 0 0 1 1945.3531 0)">
				<stop  offset="0" style="stop-color:#FEBBBA"/>
				<stop  offset="1" style="stop-color:#FF928E"/>
			</linearGradient>
			<path style="fill:url(#SVGID_00000120553247619007015260000000550542405183787161_);" d="M2617.98,2980.132l13.378,53.206
				c1.64,6.524-1.482,13.271-7.514,16.367c-7.484,3.84-18.02,7.876-27.703,6.708c-4.554-0.55-8.337-3.757-9.841-8.044l-19.64-55.98
				L2617.98,2980.132z"/>
			
				<linearGradient id="SVGID_00000134220544415296767250000002606231754909107592_" gradientUnits="userSpaceOnUse" x1="-159.6158" y1="2315.5225" x2="-715.6919" y2="3226.4285" gradientTransform="matrix(-1 0 0 1 1945.3531 0)">
				<stop  offset="0" style="stop-color:#09005D"/>
				<stop  offset="1" style="stop-color:#1A0F91"/>
			</linearGradient>
			<path style="fill:url(#SVGID_00000134220544415296767250000002606231754909107592_);" d="M2147.389,2279.369
				c0,0,119.548,747.277,117.579,751.384c0,0,33.018,15.007,69.013,1.913c0,0-10.81-399.473-36.141-552.641
				c0,0,204.028,357.051,268.819,534.961c0,0,33.793-4.029,61.766-22.438c0,0-219.681-642.674-278.29-728.275L2147.389,2279.369z"/>
			
				<linearGradient id="SVGID_00000016049541848610106400000003895682653976065448_" gradientUnits="userSpaceOnUse" x1="2492.3196" y1="1975.0514" x2="2154.4836" y2="2625.8826">
				<stop  offset="0" style="stop-color:#4F52FF"/>
				<stop  offset="1" style="stop-color:#4042E2"/>
			</linearGradient>
			<path style="opacity:0.6;fill:url(#SVGID_00000016049541848610106400000003895682653976065448_);" d="M2293.069,2478.384
				c1.046,0,2.107-0.282,3.061-0.88c2.702-1.693,3.523-5.258,1.831-7.961l-44.674-71.361c-0.844-1.348-2.2-2.285-3.758-2.601
				l-32.879-6.618c-3.126-0.655-6.175,1.399-6.804,4.525s1.396,6.172,4.525,6.804l30.442,6.127l43.354,69.251
				C2289.263,2477.425,2291.145,2478.384,2293.069,2478.384z"/>
			
				<linearGradient id="SVGID_00000129188572395033577350000007153844922432638125_" gradientUnits="userSpaceOnUse" x1="3198.1057" y1="1221.889" x2="2813.2549" y2="1552.726">
				<stop  offset="0" style="stop-color:#09005D"/>
				<stop  offset="1" style="stop-color:#1A0F91"/>
			</linearGradient>
			<path style="fill:url(#SVGID_00000129188572395033577350000007153844922432638125_);" d="M2135.17,1796.481
				c20.11-42.173,193.712-46.62,320.893-4.601c26.766,8.843,48.446,28.63,59.618,54.269c34.404,78.953,90.104,258.756-64.524,349.53
				c-11.88-29.495-25.592-53.203-37.317-70.621c24.902-42.002,32.277-99.371-11.912-174.075
				c-32.221,87.005-47.338,213.955-50.497,270.137c-1.04,18.498,2.205,36.959,9.463,54.038l0.792,1.863
				c1.553,3.654-0.584,7.854-4.491,8.731c-87.05,19.554-177.588,14.241-204.637,12.007c-4.829-0.398-8.841-3.854-9.949-8.521
				C2100.278,2110.876,2104.89,1859.981,2135.17,1796.481z"/>
			
				<linearGradient id="SVGID_00000119835323967971730220000016687852292531195808_" gradientUnits="userSpaceOnUse" x1="-365.5636" y1="1863.3463" x2="-337.3426" y2="1715.1865" gradientTransform="matrix(-1 0 0 1 1945.3531 0)">
				<stop  offset="0" style="stop-color:#FEBBBA"/>
				<stop  offset="1" style="stop-color:#FF928E"/>
			</linearGradient>
			<path style="fill:url(#SVGID_00000119835323967971730220000016687852292531195808_);" d="M2325.198,1653.686
				c0,0,8.806,93.111,16.56,120.653c1.176,4.178-0.639,8.584-4.435,10.754c-13.159,7.519-44.722,19.784-87.895-1.375
				c-6.994-3.428-11.199-10.718-10.873-18.434l3.804-89.975L2325.198,1653.686z"/>
			<g>
				
					<linearGradient id="SVGID_00000072965454935124850440000015510863586144491952_" gradientUnits="userSpaceOnUse" x1="-289.2018" y1="1591.5195" x2="-450.2196" y2="1714.7227" gradientTransform="matrix(-1 0 0 1 1945.3531 0)">
					<stop  offset="0" style="stop-color:#FEBBBA"/>
					<stop  offset="1" style="stop-color:#FF928E"/>
				</linearGradient>
				<path style="fill:url(#SVGID_00000072965454935124850440000015510863586144491952_);" d="M2240.459,1534.567
					c0,0-28.166,64.702-30.058,98.663s-9.209,55.997,30.058,62.835c39.267,6.839,72.347-12.722,90.267-46.551
					c0,0,28.078-52.126,21.78-73.473C2346.208,1554.694,2240.459,1534.567,2240.459,1534.567z"/>
				
					<linearGradient id="SVGID_00000068669500089985351010000008533927692313879691_" gradientUnits="userSpaceOnUse" x1="1744.3461" y1="2005.4602" x2="2270.9583" y2="1580.1202">
					<stop  offset="0" style="stop-color:#09005D"/>
					<stop  offset="1" style="stop-color:#1A0F91"/>
				</linearGradient>
				<path style="fill:url(#SVGID_00000068669500089985351010000008533927692313879691_);" d="M2317.308,1625.192l-2.235-0.985
					c-2.846-1.255-4.063-4.642-2.634-7.404c5.537-10.699,16.332-35.215,2.387-40.934c-17.971-7.371-89.159-21.888-104.519-47.147
					c-14.761-24.277-1.682-55.615,17.974-64.528c1.315-0.596,2.866-0.123,3.541,1.154l1.638,3.1c1.122,2.122,4.256,1.8,4.923-0.505
					l0,0c0.641-2.213,3.584-2.642,4.805-0.688c4.721,7.557,17.467,19.809,51.553,26.099c48.443,8.941,80.47,28.545,81.268,62.019
					c0.051,2.127,2.313,3.309,4.13,2.202c3.577-2.18,9.301-3.202,16.95,3.23c13.303,11.186,7.86,40.205-21.305,64.075
					c-1.385,1.134-1.375,3.297,0.126,4.274c5.288,3.442,13.169,11.631-7.254,22.548c-21.124,11.292-36.898,10.366-42.972,9.363
					c-1.511-0.249-2.485-1.712-2.156-3.208l6.483-29.421c0.367-1.666-0.901-3.243-2.606-3.243H2317.308z"/>
				
					<linearGradient id="SVGID_00000142160772905759491770000013142419927374345371_" gradientUnits="userSpaceOnUse" x1="-309.1741" y1="1565.4172" x2="-470.1916" y2="1688.6201" gradientTransform="matrix(-1 0 0 1 1945.3531 0)">
					<stop  offset="0" style="stop-color:#FEBBBA"/>
					<stop  offset="1" style="stop-color:#FF928E"/>
				</linearGradient>
				<path style="fill:url(#SVGID_00000142160772905759491770000013142419927374345371_);" d="M2316.088,1631.4
					c0,0,10.745-41.331,29.276-29.742c18.531,11.588-9.616,46.31-24.514,47.856L2316.088,1631.4z"/>
			</g>
			
				<linearGradient id="SVGID_00000116212864903585501490000010270136665793144474_" gradientUnits="userSpaceOnUse" x1="2462.6387" y1="2410.6367" x2="1558.8843" y2="1298.5435">
				<stop  offset="0" style="stop-color:#E1473D"/>
				<stop  offset="1" style="stop-color:#E9605A"/>
			</linearGradient>
			<path style="fill:url(#SVGID_00000116212864903585501490000010270136665793144474_);" d="M2349.677,2252.951h-322.226
				c-2.338,0-4.25-1.912-4.25-4.25v-350.64c0-2.338,1.912-4.25,4.25-4.25h322.226c2.337,0,4.25,1.912,4.25,4.25v350.64
				C2353.927,2251.039,2352.015,2252.951,2349.677,2252.951z"/>
			
				<linearGradient id="SVGID_00000051383729409371030320000007403864379321161604_" gradientUnits="userSpaceOnUse" x1="2322.7253" y1="1939.576" x2="1951.8281" y2="2222.9001">
				<stop  offset="0" style="stop-color:#FF928E"/>
				<stop  offset="1" style="stop-color:#FE7062"/>
			</linearGradient>
			<path style="fill:url(#SVGID_00000051383729409371030320000007403864379321161604_);" d="M2308.503,2253.083h-322.226
				c-2.338,0-4.25-1.912-4.25-4.25v-350.64c0-2.338,1.912-4.25,4.25-4.25h322.226c2.337,0,4.25,1.912,4.25,4.25v350.64
				C2312.753,2251.171,2310.84,2253.083,2308.503,2253.083z"/>
			
				<linearGradient id="SVGID_00000142890929071465397340000013990580420365936816_" gradientUnits="userSpaceOnUse" x1="-353.1396" y1="2155.144" x2="-427.4282" y2="2266.5767" gradientTransform="matrix(-1 0 0 1 1945.3531 0)">
				<stop  offset="0" style="stop-color:#FEBBBA"/>
				<stop  offset="1" style="stop-color:#FF928E"/>
			</linearGradient>
			<path style="fill:url(#SVGID_00000142890929071465397340000013990580420365936816_);" d="M2369.599,2190.292
				c0,0-10.593-17.654-35.308-17.654c-12.781,0-26.506,12.274-36.781,24.128c-8.96,10.337-6.08,26.351,5.945,32.874
				c11.25,6.102,23.967,13.807,30.836,20.676C2348.413,2264.438,2369.599,2218.538,2369.599,2190.292z"/>
		</g>
	</g>
</g>
</svg>
